<mxfile host="app.diagrams.net" agent="Mozilla/5.0 (Windows NT 10.0; Win64; x64; rv:131.0) Gecko/20100101 Firefox/131.0" version="24.8.3">
  <diagram name="Сторінка-1" id="rQd2wlxnE9XCJg-spNge">
    <mxGraphModel dx="1103" dy="595" grid="1" gridSize="10" guides="1" tooltips="1" connect="1" arrows="1" fold="1" page="1" pageScale="1" pageWidth="827" pageHeight="1169" math="0" shadow="0">
      <root>
        <mxCell id="0" />
        <mxCell id="1" parent="0" />
        <mxCell id="xeEEUdCdwamQVuN_3YAJ-1" value="" style="verticalLabelPosition=bottom;verticalAlign=top;html=1;shape=mxgraph.basic.rect;fillColor2=none;strokeWidth=1;size=20;indent=5;" vertex="1" parent="1">
          <mxGeometry x="170" y="20" width="540" height="770" as="geometry" />
        </mxCell>
        <mxCell id="xeEEUdCdwamQVuN_3YAJ-2" value="&lt;div&gt;Client&lt;/div&gt;" style="shape=umlActor;verticalLabelPosition=bottom;verticalAlign=top;html=1;" vertex="1" parent="1">
          <mxGeometry x="80" y="160" width="60" height="120" as="geometry" />
        </mxCell>
        <mxCell id="xeEEUdCdwamQVuN_3YAJ-3" value="Detective" style="shape=umlActor;verticalLabelPosition=bottom;verticalAlign=top;html=1;" vertex="1" parent="1">
          <mxGeometry x="70" y="530" width="60" height="120" as="geometry" />
        </mxCell>
        <mxCell id="xeEEUdCdwamQVuN_3YAJ-4" value="Manager" style="shape=umlActor;verticalLabelPosition=bottom;verticalAlign=top;html=1;" vertex="1" parent="1">
          <mxGeometry x="740" y="320" width="60" height="130" as="geometry" />
        </mxCell>
        <mxCell id="xeEEUdCdwamQVuN_3YAJ-10" value="Увійти до аккаунту" style="ellipse;whiteSpace=wrap;html=1;" vertex="1" parent="1">
          <mxGeometry x="200" y="380" width="100" height="50" as="geometry" />
        </mxCell>
        <mxCell id="xeEEUdCdwamQVuN_3YAJ-12" value="Вийти з аккаунту" style="ellipse;whiteSpace=wrap;html=1;" vertex="1" parent="1">
          <mxGeometry x="370" y="320" width="100" height="50" as="geometry" />
        </mxCell>
        <mxCell id="xeEEUdCdwamQVuN_3YAJ-13" value="Зареєструватися" style="ellipse;whiteSpace=wrap;html=1;" vertex="1" parent="1">
          <mxGeometry x="363" y="450" width="100" height="50" as="geometry" />
        </mxCell>
        <mxCell id="xeEEUdCdwamQVuN_3YAJ-16" value="" style="endArrow=none;html=1;rounded=0;exitX=1;exitY=0.3333333333333333;exitDx=0;exitDy=0;exitPerimeter=0;entryX=0;entryY=0.5;entryDx=0;entryDy=0;" edge="1" parent="1" source="xeEEUdCdwamQVuN_3YAJ-3" target="xeEEUdCdwamQVuN_3YAJ-10">
          <mxGeometry width="50" height="50" relative="1" as="geometry">
            <mxPoint x="390" y="490" as="sourcePoint" />
            <mxPoint x="440" y="440" as="targetPoint" />
          </mxGeometry>
        </mxCell>
        <mxCell id="xeEEUdCdwamQVuN_3YAJ-17" value="" style="endArrow=none;html=1;rounded=0;exitX=1;exitY=0.3333333333333333;exitDx=0;exitDy=0;exitPerimeter=0;entryX=0;entryY=0.5;entryDx=0;entryDy=0;" edge="1" parent="1" source="xeEEUdCdwamQVuN_3YAJ-2" target="xeEEUdCdwamQVuN_3YAJ-10">
          <mxGeometry width="50" height="50" relative="1" as="geometry">
            <mxPoint x="140" y="580" as="sourcePoint" />
            <mxPoint x="210" y="415" as="targetPoint" />
          </mxGeometry>
        </mxCell>
        <mxCell id="xeEEUdCdwamQVuN_3YAJ-18" value="" style="endArrow=none;html=1;rounded=0;" edge="1" parent="1" source="xeEEUdCdwamQVuN_3YAJ-4">
          <mxGeometry width="50" height="50" relative="1" as="geometry">
            <mxPoint x="150" y="210" as="sourcePoint" />
            <mxPoint x="300" y="410" as="targetPoint" />
          </mxGeometry>
        </mxCell>
        <mxCell id="xeEEUdCdwamQVuN_3YAJ-22" value="&lt;font style=&quot;font-size: 12px;&quot;&gt;&amp;lt;&amp;lt;Extend&amp;gt;&amp;gt;&lt;/font&gt;" style="endArrow=open;html=1;rounded=0;dashed=1;entryX=0.911;entryY=0.65;entryDx=0;entryDy=0;entryPerimeter=0;exitX=0;exitY=0.5;exitDx=0;exitDy=0;endFill=0;" edge="1" parent="1" source="xeEEUdCdwamQVuN_3YAJ-13" target="xeEEUdCdwamQVuN_3YAJ-10">
          <mxGeometry x="-0.0277" y="-6" width="50" height="50" relative="1" as="geometry">
            <mxPoint x="390" y="490" as="sourcePoint" />
            <mxPoint x="440" y="440" as="targetPoint" />
            <mxPoint as="offset" />
          </mxGeometry>
        </mxCell>
        <mxCell id="xeEEUdCdwamQVuN_3YAJ-23" value="&amp;lt;&amp;lt;Include&amp;gt;&amp;gt;" style="endArrow=open;html=1;rounded=0;dashed=1;entryX=0;entryY=0.5;entryDx=0;entryDy=0;endFill=0;" edge="1" parent="1" target="xeEEUdCdwamQVuN_3YAJ-12">
          <mxGeometry x="-0.0277" y="-6" width="50" height="50" relative="1" as="geometry">
            <mxPoint x="300" y="400" as="sourcePoint" />
            <mxPoint x="301" y="423" as="targetPoint" />
            <mxPoint as="offset" />
          </mxGeometry>
        </mxCell>
        <mxCell id="xeEEUdCdwamQVuN_3YAJ-24" value="Замовити послуги агентства" style="ellipse;whiteSpace=wrap;html=1;" vertex="1" parent="1">
          <mxGeometry x="200" y="50" width="100" height="50" as="geometry" />
        </mxCell>
        <mxCell id="xeEEUdCdwamQVuN_3YAJ-25" value="Обрати детектива" style="ellipse;whiteSpace=wrap;html=1;" vertex="1" parent="1">
          <mxGeometry x="420" y="30" width="100" height="50" as="geometry" />
        </mxCell>
        <mxCell id="xeEEUdCdwamQVuN_3YAJ-26" value="&lt;font style=&quot;font-size: 12px;&quot;&gt;&amp;lt;&amp;lt;Include&amp;gt;&amp;gt;&lt;/font&gt;" style="endArrow=open;html=1;rounded=0;dashed=1;entryX=0.055;entryY=0.577;entryDx=0;entryDy=0;entryPerimeter=0;exitX=1;exitY=0.5;exitDx=0;exitDy=0;endFill=0;" edge="1" parent="1" source="xeEEUdCdwamQVuN_3YAJ-24" target="xeEEUdCdwamQVuN_3YAJ-25">
          <mxGeometry x="-0.0277" y="-6" width="50" height="50" relative="1" as="geometry">
            <mxPoint x="373" y="485" as="sourcePoint" />
            <mxPoint x="301" y="423" as="targetPoint" />
            <mxPoint as="offset" />
          </mxGeometry>
        </mxCell>
        <mxCell id="xeEEUdCdwamQVuN_3YAJ-28" value="" style="endArrow=none;html=1;rounded=0;entryX=0;entryY=0.5;entryDx=0;entryDy=0;" edge="1" parent="1" target="xeEEUdCdwamQVuN_3YAJ-24">
          <mxGeometry width="50" height="50" relative="1" as="geometry">
            <mxPoint x="140" y="200" as="sourcePoint" />
            <mxPoint x="440" y="310" as="targetPoint" />
          </mxGeometry>
        </mxCell>
        <mxCell id="xeEEUdCdwamQVuN_3YAJ-31" value="Залишити відгук" style="ellipse;whiteSpace=wrap;html=1;" vertex="1" parent="1">
          <mxGeometry x="200" y="120" width="100" height="50" as="geometry" />
        </mxCell>
        <mxCell id="xeEEUdCdwamQVuN_3YAJ-32" value="" style="endArrow=none;html=1;rounded=0;entryX=0;entryY=0.5;entryDx=0;entryDy=0;" edge="1" parent="1" target="xeEEUdCdwamQVuN_3YAJ-31">
          <mxGeometry width="50" height="50" relative="1" as="geometry">
            <mxPoint x="140" y="200" as="sourcePoint" />
            <mxPoint x="210" y="85" as="targetPoint" />
          </mxGeometry>
        </mxCell>
        <mxCell id="xeEEUdCdwamQVuN_3YAJ-33" value="Переглянути відгуки" style="ellipse;whiteSpace=wrap;html=1;" vertex="1" parent="1">
          <mxGeometry x="420" y="100" width="100" height="50" as="geometry" />
        </mxCell>
        <mxCell id="xeEEUdCdwamQVuN_3YAJ-34" value="&lt;font style=&quot;font-size: 12px;&quot;&gt;&amp;lt;&amp;lt;Extend&amp;gt;&amp;gt;&lt;/font&gt;" style="endArrow=open;html=1;rounded=0;dashed=1;entryX=1;entryY=0.5;entryDx=0;entryDy=0;exitX=0;exitY=0.5;exitDx=0;exitDy=0;endFill=0;" edge="1" parent="1" source="xeEEUdCdwamQVuN_3YAJ-33" target="xeEEUdCdwamQVuN_3YAJ-31">
          <mxGeometry x="-0.0277" y="-6" width="50" height="50" relative="1" as="geometry">
            <mxPoint x="433" y="77" as="sourcePoint" />
            <mxPoint x="309" y="80" as="targetPoint" />
            <mxPoint as="offset" />
          </mxGeometry>
        </mxCell>
        <mxCell id="xeEEUdCdwamQVuN_3YAJ-35" value="Прочитати інформацію про агентство" style="ellipse;whiteSpace=wrap;html=1;" vertex="1" parent="1">
          <mxGeometry x="340" y="170" width="100" height="50" as="geometry" />
        </mxCell>
        <mxCell id="xeEEUdCdwamQVuN_3YAJ-36" value="" style="endArrow=none;html=1;rounded=0;entryX=0;entryY=0.5;entryDx=0;entryDy=0;exitX=1;exitY=0.3333333333333333;exitDx=0;exitDy=0;exitPerimeter=0;" edge="1" parent="1" source="xeEEUdCdwamQVuN_3YAJ-2" target="xeEEUdCdwamQVuN_3YAJ-35">
          <mxGeometry width="50" height="50" relative="1" as="geometry">
            <mxPoint x="390" y="330" as="sourcePoint" />
            <mxPoint x="216" y="222" as="targetPoint" />
          </mxGeometry>
        </mxCell>
        <mxCell id="xeEEUdCdwamQVuN_3YAJ-37" value="Подивитись діаграму виконаних справи детектива" style="ellipse;whiteSpace=wrap;html=1;" vertex="1" parent="1">
          <mxGeometry x="200" y="210" width="150" height="70" as="geometry" />
        </mxCell>
        <mxCell id="xeEEUdCdwamQVuN_3YAJ-39" value="" style="endArrow=none;html=1;rounded=0;exitX=1;exitY=0.3333333333333333;exitDx=0;exitDy=0;exitPerimeter=0;entryX=0;entryY=0.5;entryDx=0;entryDy=0;" edge="1" parent="1" source="xeEEUdCdwamQVuN_3YAJ-2" target="xeEEUdCdwamQVuN_3YAJ-37">
          <mxGeometry width="50" height="50" relative="1" as="geometry">
            <mxPoint x="390" y="310" as="sourcePoint" />
            <mxPoint x="440" y="260" as="targetPoint" />
          </mxGeometry>
        </mxCell>
        <mxCell id="xeEEUdCdwamQVuN_3YAJ-41" value="Обрати детектива" style="ellipse;whiteSpace=wrap;html=1;" vertex="1" parent="1">
          <mxGeometry x="470" y="200" width="100" height="50" as="geometry" />
        </mxCell>
        <mxCell id="xeEEUdCdwamQVuN_3YAJ-40" value="&lt;font style=&quot;font-size: 12px;&quot;&gt;&amp;lt;&amp;lt;Include&amp;gt;&amp;gt;&lt;/font&gt;" style="endArrow=open;html=1;rounded=0;dashed=1;entryX=0.055;entryY=0.577;entryDx=0;entryDy=0;entryPerimeter=0;exitX=1;exitY=0.5;exitDx=0;exitDy=0;endFill=0;" edge="1" parent="1">
          <mxGeometry x="-0.0277" y="-6" width="50" height="50" relative="1" as="geometry">
            <mxPoint x="350" y="246" as="sourcePoint" />
            <mxPoint x="476" y="230" as="targetPoint" />
            <mxPoint as="offset" />
          </mxGeometry>
        </mxCell>
        <mxCell id="xeEEUdCdwamQVuN_3YAJ-43" value="Подивитись які послуги надає ангентство" style="ellipse;whiteSpace=wrap;html=1;" vertex="1" parent="1">
          <mxGeometry x="220" y="290" width="110" height="60" as="geometry" />
        </mxCell>
        <mxCell id="xeEEUdCdwamQVuN_3YAJ-44" value="" style="endArrow=none;html=1;rounded=0;entryX=0;entryY=0.5;entryDx=0;entryDy=0;exitX=1;exitY=0.3333333333333333;exitDx=0;exitDy=0;exitPerimeter=0;" edge="1" parent="1" source="xeEEUdCdwamQVuN_3YAJ-2" target="xeEEUdCdwamQVuN_3YAJ-43">
          <mxGeometry width="50" height="50" relative="1" as="geometry">
            <mxPoint x="140" y="210" as="sourcePoint" />
            <mxPoint x="210" y="255" as="targetPoint" />
          </mxGeometry>
        </mxCell>
      </root>
    </mxGraphModel>
  </diagram>
</mxfile>
